<?xml version="1.0" encoding="utf-8"?>
<!-- Generator: Adobe Illustrator 27.7.0, SVG Export Plug-In . SVG Version: 6.00 Build 0)  -->
<svg version="1.1" id="Layer_1" xmlns="http://www.w3.org/2000/svg" xmlns:xlink="http://www.w3.org/1999/xlink" x="0px" y="0px"
	 viewBox="0 0 461.79 67" style="enable-background:new 0 0 461.79 67;" xml:space="preserve">
<style type="text/css">
	.st0{fill:#C8202F;}
</style>
<g>
	<g>
		<path class="st0" d="M308.74,6.39c0,0,3.53,0.09,4.48,0.09c0.95,0,5.03-0.13,5.03-0.13v0.68c-2.22,0.32-2.95,0.91-1.68,3.94
			l7.3,17.54l7.07-19.04c0.27-1.18,0.41-1.86-1.77-2.45V6.39c0,0,3.4,0.09,4.67,0.09c1.63-0.04,3.58-0.09,3.58-0.09v0.63
			c-2.63,0-3.22,0.59-4.53,3.99l-9.79,23.57h-0.81c0,0-9.02-21.98-9.79-23.48c-1.4-2.9-1.36-3.76-3.76-4.08V6.39L308.74,6.39z"/>
		<path class="st0" d="M3.17,11.51v11.56c0,9.51,0,9.51-3.17,10.06c0,0.86,0,0.86,0,0.86s3.08-0.23,5.48-0.23
			c2.4,0,5.44,0.23,5.44,0.23s0,0,0-0.86c-3.17-0.55-3.17-0.55-3.17-10.06V11.51c0-9.52,0-9.52,3.17-10.02c0-0.86,0-0.86,0-0.86
			S7.89,0.77,5.48,0.77C3.08,0.77,0,0.64,0,0.64s0,0,0,0.86C3.22,2,3.17,2,3.17,11.51L3.17,11.51z"/>
		<path class="st0" d="M132.02,1.36c0,0-4.26-1.36-7.7-1.36c-6.48,0-11.47,4.62-11.47,9.47c0,10.92,16.9,7.89,16.9,16.36
			c0,6.8-9.07,9.38-14.87,4.76c-1.22-0.95-1.4-2.9-1.68-4.12c-1.04,0-1.04,0-1.04,0l0.36,6.21c0,0,4.49,1.9,9.11,1.9
			c8.11-0.04,12.15-5.48,12.15-10.47c0-10.97-17.04-7.93-16.99-16.27c0.05-6.03,7.25-7.57,12.55-4.58c1.31,0.64,1.9,3.99,1.9,3.99h1
			L132.02,1.36L132.02,1.36z"/>
		<path class="st0" d="M133.97,11.51l0.45-5.17c0,0,9.38,0.13,11.47,0.13c2.08,0,11.65-0.13,11.65-0.13l0.23,5.17c0,0,0.18,0-0.72,0
			c-0.73-3.13-1.68-3.63-6.07-3.63c-2.99,0-3.08,0-3.08,0v21.3c0,3.31,0.09,3.76,3.08,4.03c0,0.81,0,0.77,0,0.77
			s-2.99-0.14-5.08-0.14c-2.08,0-5.12,0.14-5.12,0.14s0,0.04,0-0.77c3.04-0.27,3.13-0.77,3.13-4.03V7.89h-3.13
			c-4.4,0-5.3,0.5-6.12,3.63C133.79,11.51,133.97,11.51,133.97,11.51L133.97,11.51z"/>
		<path class="st0" d="M204.18,6.21c0,0,5.71,0.09,8.43,0.09c2.81,0,7.84-0.09,8.57-0.09c0.04,0.91,0.45,3.67,0.54,4.49l-0.63,0.18
			c-1-2.58-1.95-3.72-10.65-3.08c0,0.04,0,11.01,0,10.97c8.07,0.05,9.16,0.23,9.38-2.77h0.73c-0.18,2.67-0.27,4.3-0.18,6.93h-0.73
			c-0.13-2.85-1.18-2.67-9.2-2.67v11.83c7.66,0.5,10.88,0.22,12.06-3.53l0.77,0.27c-0.36,1.36-1.36,5.08-1.36,5.08
			s-9.56-0.14-11.24-0.14c-2.72,0-6.48,0.14-6.48,0.14v-0.72c2.22-0.32,2.54-0.36,2.63-3.94V11.01c-0.04-3.72-0.86-3.81-2.63-4.08
			V6.21L204.18,6.21z"/>
		<path class="st0" d="M235.4,0.5c0,0,3.26,0.14,5.57,0.14c2.31,0,5.53-0.14,5.53-0.14v0.86c-1.5,0.45-3.3,0.13-3.3,5.62v14.18
			c0,5.67,1.35,6.94,1.35,6.94s2.04,3.94,7.7,3.94c5.12,0,7.21-3.89,7.21-3.89s1.18-1.14,1.27-6.67c0,0.14,0-14.46,0-14.46
			c-0.09-5.07-0.55-5.03-4.12-5.66V0.5c0,0,1.99,0.14,5.21,0.14c2.45,0,4.49-0.14,4.49-0.14s0,0.91,0,0.86
			c-2.08,0.45-3.35,0.72-3.31,5.48v15.91c0.04,5.53-2.81,7.98-2.81,7.98s-3.13,3.71-9.83,3.71c-7.07,0-10.11-4.67-10.11-4.67
			s-1.81-1.86-1.81-8.57V7.02c0-5.07-0.68-5.3-3.04-5.66V0.5L235.4,0.5z"/>
		<path class="st0" d="M267.04,6.35c0,0,1.63,0.09,3.45,0.09c1.86,0,2.62-0.09,2.62-0.09l18.9,21.44V11.01
			c0-3.17-0.63-3.67-3.31-3.99V6.35c0,0,2.26,0.13,4.08,0.13c1.86,0,3.9-0.13,3.9-0.13v0.68c-2.18,0.73-2.76,0.86-2.76,3.94v23.48
			l-1.4-0.14l-19.67-22.35V29.1c0,2.58,0.36,3.67,3.13,4.13v0.68c0,0-2.23-0.14-4.13-0.14c-1.72,0-3.95,0.14-3.95,0.14v-0.68
			c2.67-0.45,3.13-1.54,3.13-4.13V11.01c0-2.99-2.04-3.49-3.99-3.99V6.35L267.04,6.35z"/>
		<path class="st0" d="M437.81,6.39c0,0,2.49,0.09,4.4,0.09c1.9,0,4.58-0.09,4.58-0.09v0.73c-1.73,0.5-2.72,0.59-1.55,2.49
			l5.85,9.52l5.53-9.47c0.67-1.41,1.04-2.22-1.68-2.63V6.39c0,0,1.86,0.09,3.62,0.09c1.59,0,3.22-0.09,3.22-0.09v0.63
			c-1.77,0.41-1.82,0.86-2.99,2.59l-7.12,11.01l0.09,8.52c0,3.72,0.95,3.58,3.18,4.08v0.68c0,0-2.85-0.14-4.94-0.14
			c-2.08,0-5.03,0.14-5.03,0.14v-0.68c2.54-0.5,2.86-0.32,2.95-4.03l0.04-8.57L440.94,9.7c-1.68-2.17-1.54-2.22-3.13-2.58V6.39
			L437.81,6.39z"/>
		<path class="st0" d="M52.39,6.21c0,0,2.59,0.04,4.81,0.04c2.18,0,4.81-0.04,4.81-0.04s0-0.04,0,0.72c-2.04,0.23-2.86,1-2.36,2.58
			l7.89,18.99l6.8-18.99c0.5-1.95,0.05-2.36-2.72-2.58c0-0.82,0-0.72,0-0.72s2.09,0.04,3.81,0.04c1.77,0,4.08-0.04,4.08-0.04
			s0-0.04,0,0.72c-1.95,0.23-2.31,1-2.95,2.54L66.99,34.4h-1l-6.57-15.77L52.8,34.4h-0.04h-0.73L41.92,9.47
			c-0.73-1.63-0.95-1.91-3.26-2.54c0-0.82-0.05-0.72-0.05-0.72s2.54,0.04,4.71,0.04c2.22,0,4.9-0.04,4.9-0.04s0-0.04,0,0.72
			c-2.22,0.23-2.85,1-2.31,2.63l7.57,18.95l5.03-12.01L55.7,9.52c-0.95-1.95-1.09-2.09-3.31-2.58C52.39,6.12,52.39,6.21,52.39,6.21
			L52.39,6.21z"/>
		<path class="st0" d="M178.48,11.51l0.45-5.17c0,0,9.38,0.13,11.47,0.13c2.08,0,11.65-0.13,11.65-0.13l0.22,5.17c0,0,0.18,0-0.72,0
			c-0.73-3.13-1.68-3.63-6.08-3.63c-2.99,0-3.08,0-3.08,0v21.3c0,3.31,0.09,3.76,3.08,4.03c0,0.81,0,0.77,0,0.77
			s-2.99-0.14-5.07-0.14c-2.09,0-5.12,0.14-5.12,0.14s0,0.04,0-0.77c3.03-0.27,3.13-0.77,3.13-4.03V7.89h-3.13
			c-4.4,0-5.31,0.5-6.12,3.63C178.3,11.51,178.48,11.51,178.48,11.51L178.48,11.51z"/>
		<path class="st0" d="M405.87,15.32v9.57c0,7.89,0.04,7.89-2.58,8.34c0,0.73,0,0.73,0,0.73s2.58-0.19,4.53-0.19
			c2,0,4.53,0.19,4.53,0.19s0,0,0-0.73c-2.63-0.45-2.63-0.45-2.63-8.34v-9.57c0-7.84,0-7.84,2.63-8.25c0-0.73,0-0.73,0-0.73
			s-2.54,0.09-4.53,0.09c-1.94,0-4.53-0.09-4.53-0.09s0,0,0,0.73C405.95,7.48,405.87,7.48,405.87,15.32L405.87,15.32z"/>
		<path class="st0" d="M302.3,15.32v9.57c0,7.89,0.05,7.89-2.58,8.34c0,0.73,0,0.73,0,0.73s2.58-0.19,4.53-0.19
			c2,0,4.53,0.19,4.53,0.19s0,0,0-0.73c-2.63-0.45-2.63-0.45-2.63-8.34v-9.57c0-7.84,0-7.84,2.63-8.25c0-0.73,0-0.73,0-0.73
			s-2.54,0.09-4.53,0.09c-1.95,0-4.53-0.09-4.53-0.09s0,0,0,0.73C302.39,7.48,302.3,7.48,302.3,15.32L302.3,15.32z"/>
		<path class="st0" d="M337.38,6.35c0,0,5.71,0.09,8.43,0.09c2.81,0,7.84-0.09,8.57-0.09c0.05,0.9,0.45,3.67,0.54,4.49l-0.63,0.18
			c-1-2.58-1.95-3.72-10.65-3.08c0,0.04,0,11.01,0,10.97c8.07,0.04,9.15,0.22,9.38-2.77h0.73c-0.18,2.67-0.27,4.3-0.18,6.94h-0.73
			c-0.13-2.85-1.18-2.68-9.2-2.68v11.83c7.66,0.5,10.88,0.23,12.06-3.53l0.77,0.27c-0.36,1.36-1.36,5.07-1.36,5.07
			s-9.56-0.14-11.24-0.14c-2.72,0-6.48,0.14-6.48,0.14v-0.72c2.22-0.32,2.54-0.36,2.63-3.94V11.15c-0.05-3.72-0.54-3.99-2.63-4.08
			V6.35L337.38,6.35z"/>
		<path class="st0" d="M413.52,11.51l0.45-5.17c0,0,9.38,0.13,11.47,0.13c2.08,0,11.65-0.13,11.65-0.13l0.23,5.17c0,0,0.17,0-0.73,0
			c-0.72-3.13-1.67-3.63-6.07-3.63c-2.99,0-3.08,0-3.08,0v21.3c0,3.31,0.09,3.76,3.08,4.03c0,0.81,0,0.77,0,0.77
			s-2.99-0.14-5.07-0.14c-2.08,0-5.12,0.14-5.12,0.14s0,0.04,0-0.77c3.03-0.27,3.12-0.77,3.12-4.03V7.89h-3.12
			c-4.4,0-5.3,0.5-6.12,3.63C413.34,11.51,413.52,11.51,413.52,11.51L413.52,11.51z"/>
		<path class="st0" d="M398.7,6.98c0,0-3.49-1.09-6.3-1.09c-5.34,0-9.47,3.8-9.47,7.79c0,8.97,13.91,6.48,13.91,13.46
			c0,5.58-7.43,7.7-12.24,3.9c-1-0.77-1.13-2.4-1.36-3.4c-0.86,0-0.86,0-0.86,0l0.32,5.12c0,0,3.67,1.58,7.48,1.58
			c6.66-0.04,10.02-4.53,10.02-8.65c0-9.02-14.05-6.53-14-13.37c0.05-4.94,5.98-6.21,10.33-3.76c1.09,0.5,1.54,3.26,1.54,3.26h0.86
			L398.7,6.98L398.7,6.98z"/>
		<path class="st0" d="M16.66,23.48c1.06,6.61,5.26,9.52,9.8,9.52c4.5,0,8.7-2.91,9.76-9.52h4.32c-1.57,6.4-7.41,10.88-14.09,10.88
			c-6.75,0-12.56-4.48-14.1-10.88H16.66L16.66,23.48z"/>
		<path class="st0" d="M12.36,23.48c-0.26-1.08-0.4-2.22-0.4-3.4c0-8.07,6.62-14.23,14.5-14.23c7.8,0,14.5,6.17,14.5,14.23
			c-0.01,1.18-0.15,2.32-0.42,3.4h-4.32c0.17-1.04,0.26-2.17,0.26-3.4c0-8.93-4.8-12.87-10.02-12.87c-5.25,0-10.06,3.94-10.06,12.87
			c0,1.23,0.09,2.36,0.26,3.4H12.36L12.36,23.48z"/>
		<path class="st0" d="M11.97,20.08c0-8.07,6.62-14.23,14.5-14.23c7.8,0,14.5,6.17,14.5,14.23c-0.05,8.16-6.71,14.27-14.5,14.27
			C18.58,34.35,11.97,28.24,11.97,20.08L11.97,20.08z M36.48,20.08c0-8.93-4.8-12.87-10.02-12.87c-5.25,0-10.06,3.94-10.06,12.87
			c0,9.02,4.8,12.92,10.06,12.92C31.68,32.99,36.48,29.1,36.48,20.08L36.48,20.08z"/>
		<path class="st0" d="M81.94,6.21c0,0,1.77,0.04,3.49,0.04c1.77,0,3.31-0.04,3.31-0.04l9.38,24.52c0.86,1.99,1.99,2.31,3.31,2.53
			c0,0.82,0,0.73,0,0.73s-2.58-0.14-4.76-0.14s-4.85,0.14-4.85,0.14s0,0.09,0-0.73c1.72-0.27,2.86-0.32,1.99-2.53l-2.95-8.16h-9.11
			l-3.22,8.16c-0.86,2.22,0.91,2.31,2.36,2.53c0,0.82,0,0.73,0,0.73s-1.9-0.14-3.67-0.14c-1.72,0-3.72,0.14-3.72,0.14
			s-0.05,0.18-0.05-0.68c1.54-0.59,1.77-0.59,2.63-2.58l9.06-21.21c0.72-1.99-1.13-2.13-3.22-2.63C81.94,6.07,81.94,6.21,81.94,6.21
			L81.94,6.21z M90.19,20.53l-3.63-10.19l-4.03,10.19H90.19L90.19,20.53z"/>
		<path class="st0" d="M81.94,6.21c0,0,1.77,0.04,3.49,0.04c1.77,0,3.31-0.04,3.31-0.04l9.38,24.52c0.86,1.99,1.99,2.31,3.31,2.53
			c0,0.82,0,0.73,0,0.73s-2.58-0.14-4.76-0.14s-4.85,0.14-4.85,0.14s0,0.09,0-0.73c1.72-0.27,2.86-0.32,1.99-2.53l-2.95-8.16h-9.11
			l-3.22,8.16c-0.86,2.22,0.91,2.31,2.36,2.53c0,0.82,0,0.73,0,0.73s-1.9-0.14-3.67-0.14c-1.72,0-3.72,0.14-3.72,0.14
			s-0.05,0.18-0.05-0.68c1.54-0.59,1.77-0.59,2.63-2.58l9.06-21.21c0.72-1.99-1.13-2.13-3.22-2.63C81.94,6.07,81.94,6.21,81.94,6.21
			L81.94,6.21z M90.19,20.53l-3.63-10.19l-4.03,10.19H90.19L90.19,20.53z"/>
		<path class="st0" d="M162.62,6.35c0,0,1.77,0.04,3.49,0.04c1.77,0,3.31-0.04,3.31-0.04l9.38,24.52c0.87,1.99,2,2.31,3.31,2.54
			c0,0.82,0,0.72,0,0.72s-2.58-0.14-4.76-0.14c-2.18,0-4.85,0.14-4.85,0.14s0,0.09,0-0.72c1.72-0.27,2.85-0.32,2-2.54l-2.95-8.16
			h-9.11l-3.22,8.16c-0.86,2.22,0.91,2.31,2.36,2.54c0,0.82,0,0.72,0,0.72s-1.9-0.14-3.67-0.14c-1.72,0-3.72,0.14-3.72,0.14
			s-0.05,0.18-0.05-0.68c1.54-0.59,1.77-0.59,2.63-2.58l9.06-21.21c0.73-2-1.13-2.13-3.22-2.63C162.62,6.21,162.62,6.35,162.62,6.35
			L162.62,6.35z M170.87,20.67l-3.63-10.2l-4.03,10.2H170.87L170.87,20.67z"/>
		<path class="st0" d="M162.62,6.35c0,0,1.77,0.04,3.49,0.04c1.77,0,3.31-0.04,3.31-0.04l9.38,24.52c0.87,1.99,2,2.31,3.31,2.54
			c0,0.82,0,0.72,0,0.72s-2.58-0.14-4.76-0.14c-2.18,0-4.85,0.14-4.85,0.14s0,0.09,0-0.72c1.72-0.27,2.85-0.32,2-2.54l-2.95-8.16
			h-9.11l-3.22,8.16c-0.86,2.22,0.91,2.31,2.36,2.54c0,0.82,0,0.72,0,0.72s-1.9-0.14-3.67-0.14c-1.72,0-3.72,0.14-3.72,0.14
			s-0.05,0.18-0.05-0.68c1.54-0.59,1.77-0.59,2.63-2.58l9.06-21.21c0.73-2-1.13-2.13-3.22-2.63C162.62,6.21,162.62,6.35,162.62,6.35
			L162.62,6.35z M170.87,20.67l-3.63-10.2l-4.03,10.2H170.87L170.87,20.67z"/>
		<path class="st0" d="M357.7,6.53c0,0,2.42,0.09,3.52,0.09c1.33,0,4.07-0.32,6.08-0.32c4.66,0.05,10.1,1.87,10.1,7.31
			c0,5.21-4.66,5.8-6.4,6.58c1.96,1.6,5.03,6.4,6.17,8.23c2.88,4.57,2.83,4.85,5.35,5.21v0.64c0,0-1.69-0.09-2.61-0.09
			c-0.83,0-2.47,0.05-3.11,0.05c-1.87-2.1-3.79-5.62-5.26-7.86c-2.19-3.38-4.2-5.71-7.26-5.44c0,0,0,8.46,0,8.36
			c0.18,3.84,0.59,3.93,2.66,4.34v0.6c0,0-2.15,0-4.71-0.05c-1.51,0-4.52,0.09-4.52,0.09v-0.64c1.92-0.23,2.65-0.87,2.65-4.34V11.05
			c0-3.01-0.82-3.65-2.65-3.88V6.53L357.7,6.53z M364.28,8.36V19.6c2.56,0.64,9.1,0.41,8.96-5.89
			C373.1,7.49,367.21,7.17,364.28,8.36L364.28,8.36z"/>
	</g>
	<g>
		<path class="st0" d="M2.93,50.75c0-3.47-0.07-4.74-0.94-4.74H0V45h16.86c-0.3,2.96-0.4,3.06-0.71,3.13c-0.27,0-0.34-0.17-0.4-0.6
			c-0.1-0.4-0.67-1.31-5.99-1.31h-3.3c-0.5,0-0.67,0.27-0.67,0.61v7.3h3.9c3.46,0,4.51-0.13,4.51-1.14v-1.31h0.91v5.69H14.2v-1.18
			c0-0.91-0.34-0.94-4.17-0.94H5.79v5.75c0,4.17,0.37,4.17,1.38,4.17h2.25c5.72,0,7.03-0.84,7.6-1.78c0.1-0.17,0.17-0.37,0.4-0.37
			c0.13,0,0.27,0.2,0.27,0.37c0,0.3-0.44,1.65-0.84,2.99H0.84v-1.01h1.58c0.37,0,0.5-0.24,0.5-0.54V50.75z"/>
		<path class="st0" d="M25.04,52.94h-1.35c-0.3,0-0.54,0.07-0.54,0.27c0,0.24,0.74,1.14,3.13,4.27c2.46-2.39,3.6-3.87,3.6-4.24
			c0-0.27-0.2-0.3-0.4-0.3h-1.85v-0.91h5.58v0.91c-1.04,0-1.24,0.1-1.55,0.4c-1.52,1.65-3.1,3.3-4.78,4.95
			c4.98,6.66,5.38,7.17,5.89,7.17h1.04v0.91h-6.93v-0.91h1.51c0.2,0,0.3-0.03,0.3-0.17c0-0.3-2.56-3.67-3.77-5.32
			c-0.84,0.64-3.77,4.17-3.77,5.18c0,0.27,0.17,0.3,0.44,0.3h1.89v0.91h-5.79v-0.91h1.08c0.51,0,2.29-3.16,5.59-6.33
			c-4.24-5.69-4.78-6.19-5.48-6.19h-0.91v-0.91h7.06V52.94z"/>
		<path class="st0" d="M42.34,52.03c-0.14,0.74-0.2,0.91-0.67,0.91h-2.89v8.85c0,2.15,0.1,3.7,2.22,3.7c0.74,0,1.51-0.24,2.22-0.54
			l0.34,0.74c-1.18,0.67-3.1,1.21-3.87,1.21c-1.18,0-3.53-0.1-3.53-3.33V52.94c-1.55,0-1.68-0.03-1.68-0.24
			c0-0.27,0.3-0.51,3.77-4.07h0.54v3.4H42.34z"/>
		<path class="st0" d="M56.44,64.24c-1.71,1.75-3.9,2.66-6.32,2.66c-4.24,0-6.43-3.33-6.43-7.27c0-3.87,2.12-8.14,6.53-8.14
			c3.13,0,4.71,2.12,5.96,4.78l-9.86,2.66c0.17,3.3,1.55,6.39,5.42,6.39c1.65,0,2.99-0.61,4.24-1.68L56.44,64.24z M53.18,56.1
			c-0.54-1.48-1.68-3.6-3.47-3.6c-2.32,0-3.4,3.3-3.4,5.42L53.18,56.1z"/>
		<path class="st0" d="M71.49,60.17c0,3.67,0.03,5.28,1.04,5.28h1.48v0.91h-7.03v-0.91h1.18c0.3,0,0.71-0.13,0.71-0.54v-7.94
			c0-3.1-1.14-3.77-2.66-3.77c-1.75,0-3.06,0.84-4.31,1.92v5.05c0,3.67,0.03,5.28,1.04,5.28h1.48v0.91h-7.03v-0.91h1.18
			c0.3,0,0.7-0.13,0.7-0.54v-7.94c0-4.04-0.27-4.04-1.38-4.04h-1.28v-0.91c0.5,0,1.65-0.13,2.73-0.27c1.11-0.13,2.19-0.27,2.56-0.27
			v2.52c1.72-1.28,3.23-2.52,5.52-2.52c3.5,0,4.07,2.29,4.07,4.78V60.17z"/>
		<path class="st0" d="M79.17,66.9c-1.35,0-2.72-0.2-4-0.67c-0.24-1.48-0.4-2.46-0.4-2.73c0-0.4,0.13-0.5,0.37-0.5
			c0.27,0,0.4,0.24,0.47,0.54c0.44,1.51,2.76,2.25,4.1,2.25c1.82,0,3.94-0.84,3.94-3.09c0-3.43-8.48-1.41-8.48-6.69
			c0-1.62,1.35-4.51,6.06-4.51c1.08,0,2.49,0.24,3.57,0.74c0.1,1.01,0.2,1.88,0.2,2.15c0,0.34-0.07,0.47-0.3,0.47
			c-0.27,0-0.34-0.17-0.44-0.37c-0.57-1.28-2.32-1.88-3.6-1.88c-1.41,0-3.4,0.77-3.4,2.49c0,3.4,8.68,1.58,8.68,6.93
			C85.93,65.55,82.13,66.9,79.17,66.9z"/>
		<path class="st0" d="M94.35,66.36h-7.17v-0.91h1.18c0.3,0,0.71-0.13,0.71-0.54v-7.94c0-4.04-0.27-4.04-1.38-4.04h-1.28v-0.91
			c0.5,0,1.65-0.13,2.73-0.27c1.11-0.13,2.19-0.27,2.56-0.27v8.68c0,3.67,0.03,5.28,1.04,5.28h1.62V66.36z M91.66,46.68
			c0,0.84-0.67,1.51-1.52,1.51c-0.84,0-1.51-0.67-1.51-1.51c0-0.88,0.67-1.51,1.51-1.51C90.99,45.17,91.66,45.8,91.66,46.68z"/>
		<path class="st0" d="M108.89,58.89c0,2.69-1.75,8.01-7.64,8.01c-4.34,0-6.83-3.19-6.83-7.4c0-2.69,1.75-8.01,7.64-8.01
			C106.4,51.49,108.89,54.69,108.89,58.89z M106.16,59.73c0-2.93-1.28-7.23-4.88-7.23c-3.36,0-4.14,3.5-4.14,6.19
			c0,2.93,1.28,7.2,4.88,7.2C105.39,65.89,106.16,62.42,106.16,59.73z"/>
		<path class="st0" d="M124.74,60.17c0,3.67,0.03,5.28,1.04,5.28h1.48v0.91h-7.03v-0.91h1.18c0.3,0,0.71-0.13,0.71-0.54v-7.94
			c0-3.1-1.14-3.77-2.66-3.77c-1.75,0-3.06,0.84-4.31,1.92v5.05c0,3.67,0.03,5.28,1.04,5.28h1.48v0.91h-7.03v-0.91h1.18
			c0.3,0,0.71-0.13,0.71-0.54v-7.94c0-4.04-0.27-4.04-1.38-4.04h-1.28v-0.91c0.51,0,1.65-0.13,2.73-0.27
			c1.11-0.13,2.19-0.27,2.56-0.27v2.52c1.72-1.28,3.23-2.52,5.52-2.52c3.5,0,4.07,2.29,4.07,4.78V60.17z"/>
		<path class="st0" d="M143.86,57.31v-1.72c0-1.51-0.1-2.76-2.49-2.76c-0.84,0-2.02,0.27-2.73,0.81c0,1.82-0.74,3.13-1.88,3.13
			c-0.51,0-0.91-0.4-0.91-0.91c0-2.35,3.57-4.37,7.13-4.37c3.33,0,3.5,1.62,3.5,4.34v5.15c0,2.79,0.2,3.7,2.22,4.21l-1.01,1.72
			c-1.55,0-3.23-1.24-3.63-3.06c-1.31,1.31-3.57,3.06-5.45,3.06c-1.92,0-3.03-1.31-3.03-3.16c0-2.89,2.86-4.2,7.06-5.92
			L143.86,57.31z M143.86,58.35c-3.43,1.31-5.55,2.46-5.55,4.74c0,1.11,0.6,1.82,1.75,1.82c1.55,0,2.93-1.04,3.8-2.22V58.35z"/>
		<path class="st0" d="M163.75,60.17c0,3.67,0.03,5.28,1.04,5.28h1.48v0.91h-7.03v-0.91h1.18c0.3,0,0.71-0.13,0.71-0.54v-7.94
			c0-3.1-1.14-3.77-2.66-3.77c-1.75,0-3.06,0.84-4.31,1.92v5.05c0,3.67,0.03,5.28,1.04,5.28h1.48v0.91h-7.03v-0.91h1.18
			c0.3,0,0.71-0.13,0.71-0.54v-7.94c0-4.04-0.27-4.04-1.38-4.04h-1.28v-0.91c0.5,0,1.65-0.13,2.73-0.27
			c1.11-0.13,2.19-0.27,2.56-0.27v2.52c1.72-1.28,3.23-2.52,5.52-2.52c3.5,0,4.07,2.29,4.07,4.78V60.17z"/>
		<path class="st0" d="M180.42,60.17c0,3.67,0.03,5.28,1.04,5.28h1.62v0.91c-1.75,0.07-3.53,0.3-5.28,0.54v-2.49
			c-1.65,1.28-3.16,2.49-5.11,2.49c-4.07,0-5.95-3.46-5.95-7.17c0-5.55,3.84-8.24,7.13-8.24c1.48,0,2.69,0.44,3.94,1.21v-4.41
			c0-4.04-0.27-4.04-1.38-4.04h-1.28v-0.91c0.84,0,3.53-0.4,5.28-0.71V60.17z M177.79,53.78c-0.94-0.74-2.12-1.28-3.33-1.28
			c-3.63,0-5.01,3.06-5.01,6.33c0,3.16,0.94,6.26,4.64,6.26c1.41,0,2.76-0.81,3.7-1.85V53.78z"/>
		<path class="st0" d="M191.77,56c0-6.36,4.51-11.64,11.2-11.64c6.76,0,10.6,4.44,10.6,11c0,6.36-4.51,11.64-11.2,11.64
			C195.6,67,191.77,62.56,191.77,56z M194.63,55.06c0,7.6,4.51,10.83,8.48,10.83c4.54,0,7.6-3.46,7.6-9.59
			c0-7.6-4.51-10.83-8.48-10.83C197.69,45.47,194.63,48.93,194.63,55.06z"/>
		<path class="st0" d="M231.01,66.9c-1.55-0.24-3.2-1.14-3.6-2.76c-1.65,1.38-3.46,2.76-5.15,2.76c-3.6,0-4.47-2.22-4.47-5.89v-4.04
			c0-4.04-0.27-4.04-1.38-4.04h-1.28v-0.91c0.51,0,1.65-0.13,2.73-0.27c1.11-0.13,2.19-0.27,2.56-0.27v9.49
			c0,2.39,0.27,4.11,2.62,4.11c1.61,0,3.06-0.77,4.14-1.85v-6.26c0-4.04-0.27-4.04-1.38-4.04h-1.28v-0.91
			c0.51,0,1.65-0.13,2.72-0.27c1.11-0.13,2.19-0.27,2.56-0.27v9.49c0,2.79,0.2,3.7,2.22,4.21L231.01,66.9z"/>
		<path class="st0" d="M240.57,52.03c-0.13,0.74-0.2,0.91-0.67,0.91h-2.89v8.85c0,2.15,0.1,3.7,2.22,3.7c0.74,0,1.51-0.24,2.22-0.54
			l0.34,0.74c-1.18,0.67-3.09,1.21-3.87,1.21c-1.18,0-3.53-0.1-3.53-3.33V52.94c-1.55,0-1.68-0.03-1.68-0.24
			c0-0.27,0.3-0.51,3.77-4.07h0.54v3.4H240.57z"/>
		<path class="st0" d="M247.88,60.17c0,3.67,0.03,5.28,1.04,5.28h1.62v0.91h-7.17v-0.91h1.18c0.3,0,0.7-0.13,0.7-0.54v-7.94
			c0-4.04-0.27-4.04-1.38-4.04h-1.28v-0.91c0.51,0,1.65-0.13,2.73-0.27c1.11-0.13,2.19-0.27,2.56-0.27v2.93
			c1.35-1.41,2.89-2.93,4.34-2.93c0.61,0,1.25,0.24,1.65,0.71c-0.44,2.56-0.47,2.62-0.77,2.62c-0.51,0-0.2-1.08-1.99-1.08
			c-1.38,0-2.39,0.94-3.23,1.85V60.17z"/>
		<path class="st0" d="M267.12,64.24c-1.71,1.75-3.9,2.66-6.32,2.66c-4.24,0-6.43-3.33-6.43-7.27c0-3.87,2.12-8.14,6.53-8.14
			c3.13,0,4.71,2.12,5.95,4.78L257,58.93c0.17,3.3,1.55,6.39,5.42,6.39c1.65,0,2.99-0.61,4.24-1.68L267.12,64.24z M263.86,56.1
			c-0.54-1.48-1.68-3.6-3.46-3.6c-2.32,0-3.4,3.3-3.4,5.42L263.86,56.1z"/>
		<path class="st0" d="M276.56,57.31v-1.72c0-1.51-0.1-2.76-2.49-2.76c-0.84,0-2.02,0.27-2.72,0.81c0,1.82-0.74,3.13-1.89,3.13
			c-0.51,0-0.91-0.4-0.91-0.91c0-2.35,3.57-4.37,7.13-4.37c3.33,0,3.5,1.62,3.5,4.34v5.15c0,2.79,0.2,3.7,2.22,4.21l-1.01,1.72
			c-1.55,0-3.23-1.24-3.63-3.06c-1.31,1.31-3.57,3.06-5.45,3.06c-1.92,0-3.03-1.31-3.03-3.16c0-2.89,2.86-4.2,7.06-5.92
			L276.56,57.31z M276.56,58.35c-3.43,1.31-5.55,2.46-5.55,4.74c0,1.11,0.6,1.82,1.75,1.82c1.55,0,2.92-1.04,3.8-2.22V58.35z"/>
		<path class="st0" d="M294.93,64.44c-1.48,1.65-3.67,2.46-5.86,2.46c-4.34,0-6.83-3.19-6.83-7.4c0-2.69,1.75-8.01,7.64-8.01
			c2.35,0,4.54,1.72,4.54,3.16c0,0.57-0.47,0.98-1.04,0.98c-1.31,0-2.15-1.72-2.32-2.86c-0.4-0.27-0.94-0.37-1.45-0.37
			c-3.36,0-4.74,3.36-4.74,6.26c0,3.6,1.78,6.66,5.72,6.66c1.41,0,2.79-0.54,3.87-1.48L294.93,64.44z"/>
		<path class="st0" d="M310.05,60.17c0,3.67,0.03,5.28,1.04,5.28h1.48v0.91h-7.03v-0.91h1.18c0.3,0,0.71-0.13,0.71-0.54v-7.94
			c0-3.1-1.15-3.77-2.66-3.77c-1.75,0-3.06,0.84-4.3,1.92v5.05c0,3.67,0.03,5.28,1.04,5.28h1.41v0.91h-6.96v-0.91h1.18
			c0.3,0,0.71-0.13,0.71-0.54V48.29c0-4.04-0.27-4.04-1.38-4.04h-1.28v-0.91c0.84,0,3.53-0.4,5.28-0.71v11.37
			c1.72-1.28,3.23-2.52,5.52-2.52c3.5,0,4.07,2.29,4.07,4.78V60.17z"/>
	</g>
</g>
</svg>
